<svg width="16" height="17" viewBox="0 0 16 17" fill="currentColor" xmlns="http://www.w3.org/2000/svg">
<path d="M7.38953 14.7791C3.31628 14.7791 0 11.4628 0 7.38953C0 3.31628 3.31628 0 7.38953 0C11.4628 0 14.7791 3.31628 14.7791 7.38953C14.7791 11.4628 11.4628 14.7791 7.38953 14.7791ZM7.38953 1.0814C3.90744 1.0814 1.0814 3.91465 1.0814 7.38953C1.0814 10.8644 3.90744 13.6977 7.38953 13.6977C10.8716 13.6977 13.6977 10.8644 13.6977 7.38953C13.6977 3.91465 10.8716 1.0814 7.38953 1.0814Z" fill="currentColor"/>
<path d="M14.9808 16.5215C14.8438 16.5215 14.7068 16.471 14.5987 16.3628L13.1568 14.921C12.9477 14.7119 12.9477 14.3659 13.1568 14.1568C13.3659 13.9477 13.7119 13.9477 13.921 14.1568L15.3628 15.5987C15.5719 15.8077 15.5719 16.1538 15.3628 16.3628C15.2547 16.471 15.1177 16.5215 14.9808 16.5215Z" fill="currentColor"/>
</svg>
